<svg xmlns="http://www.w3.org/2000/svg" xmlns:xlink="http://www.w3.org/1999/xlink" version="1.1" x="0px" y="0px" viewBox="0 0 64 80" style="enable-background:new 0 0 64 64;" xml:space="preserve"><g><rect x="1" y="61" width="62" height="2"/><path d="M43,51h-2v-2h2v-2h-2v-2h2v-2h-2v-1.787c4.394-2.992,7-7.891,7-13.213c0-8.822-7.178-16-16-16s-16,7.178-16,16   c0,5.322,2.606,10.221,7,13.213V43h-2v2h2v2h-2v2h2v2h-2v4H1v1v1v2h2v-2h2v2h2v-2h2v2h2v-2h2v2h2v-2h2v2h2v-2h2v2h2v-2h2v2h2v-2h2   v2h2v-2h2v2h2v-2h2v2h2v-2h2v2h2v-2h2v2h2v-2h2v2h2v-2h2v2h2v-2h2v2h2v-2h2v2h2v-2v-1v-1H43V51z M24.535,39.828   C20.443,37.24,18,32.818,18,28c0-7.72,6.28-14,14-14s14,6.28,14,14c0,4.818-2.443,9.24-6.535,11.828L39,40.123V43h-6V31.858   c1.72-0.447,3-2,3-3.858c0-2.206-1.794-4-4-4s-4,1.794-4,4c0,1.858,1.28,3.411,3,3.858V43h-6v-2.877L24.535,39.828z M32,30   c-1.103,0-2-0.897-2-2s0.897-2,2-2s2,0.897,2,2S33.103,30,32,30z M25,45h14v2H25V45z M25,49h14v2H25V49z M23,53h18v2H23V53z"/><path d="M60,1c-1.882,0-3.562,0.872-4.662,2.231L50,6.434v4.869l0.626,0.939l-4.199,2.939l1.146,1.639l4.162-2.914l0.623,0.935   l3.762,1.254L61.277,13H63v-2h-3c-2.206,0-4-1.794-4-4s1.794-4,4-4h3V1H60z M57.983,12.644l-2.103,1.262l-2.238-0.746L52,10.697   V7.566l2.038-1.223C54.014,6.559,54,6.778,54,7C54,9.6,55.665,11.813,57.983,12.644z"/><path d="M57,7c0,1.654,1.346,3,3,3s3-1.346,3-3s-1.346-3-3-3S57,5.346,57,7z M61,7c0,0.551-0.449,1-1,1s-1-0.449-1-1s0.449-1,1-1   S61,6.449,61,7z"/><path d="M8,9h3c1.302,0,2.402-0.839,2.816-2h4.704l3.7,4.625l1.562-1.249L19.48,5h-5.665C13.402,3.839,12.302,3,11,3H8V1H1v2h5v6H1   v2h7V9z M11,5c0.551,0,1,0.449,1,1s-0.449,1-1,1H8V5H11z"/><rect x="26.938" y="8.5" transform="matrix(0.9701 -0.2425 0.2425 0.9701 -1.4382 7.3172)" width="4.123" height="2"/><rect x="24.197" y="4.5" transform="matrix(0.5547 -0.8321 0.8321 0.5547 7.0015 24.0825)" width="3.606" height="2"/><rect x="15.379" y="14.5" transform="matrix(0.7071 -0.7071 0.7071 0.7071 -5.8345 16.9142)" width="4.243" height="2"/><rect x="14" y="10" width="4" height="2"/><path d="M9,46c3.86,0,7-3.14,7-7s-3.14-7-7-7c-2.71,0-5.147,1.587-6.298,4H1v2h8c0.551,0,1,0.449,1,1s-0.449,1-1,1H1v2h1.702   C3.853,44.413,6.29,46,9,46z M12,39c0-1.654-1.346-3-3-3H5.01c0.928-1.234,2.396-2,3.99-2c2.757,0,5,2.243,5,5s-2.243,5-5,5   c-1.594,0-3.062-0.766-3.99-2H9C10.654,42,12,40.654,12,39z"/><polygon points="55.343,35.929 48,37.153 48,42.847 55.343,44.071 56.414,43 63,43 63,41 55.586,41 54.657,41.929 50,41.153    50,38.847 54.657,38.071 55.586,39 63,39 63,37 56.414,37  "/></g></svg>