<?xml version="1.0" encoding="UTF-8" standalone="no"?>
<!-- Created with Inkscape (http://www.inkscape.org/) -->

<svg
   xmlns:dc="http://purl.org/dc/elements/1.1/"
   xmlns:cc="http://creativecommons.org/ns#"
   xmlns:rdf="http://www.w3.org/1999/02/22-rdf-syntax-ns#"
   xmlns:svg="http://www.w3.org/2000/svg"
   xmlns="http://www.w3.org/2000/svg"
   xmlns:sodipodi="http://sodipodi.sourceforge.net/DTD/sodipodi-0.dtd"
   xmlns:inkscape="http://www.inkscape.org/namespaces/inkscape"
   width="18.062222mm"
   height="18.062222mm"
   viewBox="0 0 63.999998 63.999997"
   id="svg4163"
   version="1.1"
   inkscape:version="0.91 r13725"
   sodipodi:docname="drawing.svg">
  <defs
     id="defs4165" />
  <sodipodi:namedview
     id="base"
     pagecolor="#ffffff"
     bordercolor="#666666"
     borderopacity="0"
     inkscape:pageopacity="0.0"
     inkscape:pageshadow="2"
     inkscape:zoom="1.979899"
     inkscape:cx="207.58635"
     inkscape:cy="-13.421361"
     inkscape:document-units="px"
     inkscape:current-layer="g8"
     showgrid="false"
     fit-margin-top="0"
     fit-margin-left="0"
     fit-margin-right="0"
     fit-margin-bottom="0.2"
     inkscape:window-width="1600"
     inkscape:window-height="842"
     inkscape:window-x="0"
     inkscape:window-y="25"
     inkscape:window-maximized="1" />
  <metadata
     id="metadata4168">
    <rdf:RDF>
      <cc:Work
         rdf:about="">
        <dc:format>image/svg+xml</dc:format>
        <dc:type
           rdf:resource="http://purl.org/dc/dcmitype/StillImage" />
        <dc:title></dc:title>
      </cc:Work>
    </rdf:RDF>
  </metadata>
  <g
     inkscape:label="Layer 1"
     inkscape:groupmode="layer"
     id="layer1"
     transform="translate(-136.57143,-108.93363)">
    <g
       id="g8"
       transform="translate(136.57143,108.93363)">
      <path
         inkscape:connector-curvature="0"
         d="m 63.7,58.3 -4,-4 c -0.4,-0.4 -1,-0.4 -1.4,0 -0.4,0.4 -0.4,1 0,1.4 l 2.3,2.3 -13.6,0 0,2 13.6,0 -2.3,2.3 c -0.4,0.4 -0.4,1 0,1.4 0.2,0.2 0.5,0.3 0.7,0.3 0.2,0 0.5,-0.1 0.7,-0.3 l 4,-4 c 0.4,-0.4 0.4,-1 0,-1.4 z"
         id="path10"
         style="stroke:#c67a39;fill:#ffffff;fill-opacity:0;stroke-opacity:1" />
      <path
         inkscape:connector-curvature="0"
         d="M 60,32 C 60,17.3 48.7,5.3 34.3,4.1 l 2.4,-2.4 c 0.4,-0.4 0.4,-1 0,-1.4 -0.4,-0.4 -1,-0.4 -1.4,0 l -4,4 c -0.4,0.4 -0.4,1 0,1.4 l 4,4 c 0.2,0.2 0.4,0.3 0.7,0.3 0.3,0 0.5,-0.1 0.7,-0.3 0.4,-0.4 0.4,-1 0,-1.4 L 34.5,6.1 C 47.7,7.4 58,18.5 58,32 58,46.3 46.3,58 32,58 l -32,0 0,2 32,0 C 47.4,60 60,47.4 60,32 Z"
         id="path12"
         style="stroke:#c67a39;fill:#ffffff;fill-opacity:0;stroke-opacity:1" />
      <path
         inkscape:connector-curvature="0"
         d="m 17.5,56 1,-1.7 C 12.6,50.7 8.4,45 6.7,38.3 5,31.6 6.1,24.6 9.7,18.6 13.6,12.2 20,7.8 27.3,6.4 l -0.4,-2 C 19,5.9 12.2,10.7 8,17.5 4.1,23.9 3,31.4 4.8,38.7 6.6,46 11.1,52.1 17.5,56 Z"
         id="path14"
         style="stroke:#c67a39;fill:#ffffff;fill-opacity:0;stroke-opacity:1" />
      <path
         inkscape:connector-curvature="0"
         d="m 32,30 c 0.6,0 1,0.4 1,1 l 2,0 c 0,-1.7 -1.3,-3 -3,-3 -2.2,0 -4,1.8 -4,4 0,2.8 2.2,5 5,5 3.3,0 6,-2.7 6,-6 0,-3.9 -3.1,-7 -7,-7 -4.4,0 -8,3.6 -8,8 0,5 4,9 9,9 5.5,0 10,-4.5 10,-10 0,-6.1 -4.9,-11 -11,-11 -6.6,0 -12,5.4 -12,12 0,7.2 5.8,13 13,13 7.7,0 14,-6.3 14,-14 0,-8.3 -6.7,-15 -15,-15 -8.8,0 -16,7.2 -16,16 0,9.4 7.6,17 17,17 9.9,0 18,-8.1 18,-18 0,-10.5 -8.5,-19 -19,-19 -11,0 -20,9 -20,20 0,11.6 9.4,21 21,21 l 0,-2 C 22.5,51 14,42.5 14,32 c 0,-9.9 8.1,-18 18,-18 9.4,0 17,7.6 17,17 0,8.8 -7.2,16 -16,16 -8.3,0 -15,-6.7 -15,-15 0,-7.7 6.3,-14 14,-14 7.2,0 13,5.8 13,13 0,6.6 -5.4,12 -12,12 -6.1,0 -11,-4.9 -11,-11 0,-5.5 4.5,-10 10,-10 5,0 9,4 9,9 0,4.4 -3.6,8 -8,8 -3.9,0 -7,-3.1 -7,-7 0,-3.3 2.7,-6 6,-6 2.8,0 5,2.2 5,5 0,2.2 -1.8,4 -4,4 -1.7,0 -3,-1.3 -3,-3 0,-1.1 0.9,-2 2,-2 z"
         id="path16"
         style="stroke:#c67a39;fill:#ffffff;fill-opacity:0;stroke-opacity:1" />
    </g>
  </g>
</svg>
