<svg xmlns="http://www.w3.org/2000/svg" xmlns:xlink="http://www.w3.org/1999/xlink" version="1.1" x="0px" y="0px" viewBox="0 0 100 125" enable-background="new 0 0 100 100" xml:space="preserve"><path d="M50,11.026c-21.525,0-38.974,17.449-38.974,38.974c0,12.283,5.688,23.232,14.567,30.376l-14.567,8.599H50  c21.525,0,38.975-17.449,38.975-38.975C88.975,28.475,71.523,11.026,50,11.026z M49.999,85.507H23.961l8.242-4.786  C21.617,74.574,14.493,63.123,14.493,50c0-19.61,15.896-35.506,35.506-35.506c19.61,0,35.507,15.896,35.507,35.506  C85.506,69.609,69.609,85.507,49.999,85.507z M44.855,25.777l-5.292-1.031l0.568,1.651c-9.17,3.938-15.61,13.051-15.61,23.646  c0,3.449,0.694,6.735,1.931,9.743c-0.841,0.732-1.375,1.807-1.375,3.006c0,2.199,1.79,3.989,3.988,3.989s3.988-1.79,3.988-3.989  s-1.79-3.987-3.988-3.987c-0.351,0-0.689,0.049-1.014,0.135c-1.109-2.752-1.728-5.752-1.728-8.896  c0-9.806,5.934-18.245,14.396-21.935l0.597,1.735L44.855,25.777z M31.25,62.793c0,1.207-0.981,2.187-2.186,2.187  c-1.206,0-2.186-0.979-2.186-2.187c0-1.205,0.98-2.186,2.186-2.186C30.27,60.607,31.25,61.588,31.25,62.793z M75.695,53.765  c0.18-1.217,0.283-2.456,0.283-3.721c0-12.847-9.467-23.516-21.79-25.418c-0.286-1.92-1.94-3.398-3.939-3.398  c-2.199,0-3.988,1.79-3.988,3.989c0,2.199,1.79,3.988,3.988,3.988c1.778,0,3.287-1.17,3.799-2.781  c11.395,1.826,20.128,11.72,20.128,23.621c0,1.126-0.09,2.23-0.242,3.315l-1.709-0.394l1.58,5.154l3.674-3.945L75.695,53.765z   M50.25,27.402c-1.205,0-2.186-0.981-2.186-2.186c0-1.206,0.981-2.187,2.186-2.187c1.206,0,2.186,0.98,2.186,2.187  C52.436,26.421,51.455,27.402,50.25,27.402z M71.436,58.806c-2.198,0-3.988,1.788-3.988,3.987c0,1.039,0.402,1.983,1.056,2.694  c-4.393,5.184-10.942,8.484-18.253,8.484c-5.301,0-10.199-1.739-14.169-4.669l1.179-1.342l-5.286-1.059l1.729,5.107l1.187-1.351  c4.29,3.207,9.605,5.113,15.361,5.113c7.927,0,15.018-3.611,19.741-9.266c0.449,0.176,0.936,0.275,1.445,0.275  c2.198,0,3.988-1.79,3.988-3.989S73.634,58.806,71.436,58.806z M71.436,64.979c-1.205,0-2.186-0.979-2.186-2.187  c0-1.205,0.98-2.186,2.186-2.186c1.206,0,2.186,0.98,2.186,2.186C73.621,64,72.642,64.979,71.436,64.979z"/></svg>