<?xml version="1.0" encoding="UTF-8" standalone="no"?>
<svg
   xmlns:dc="http://purl.org/dc/elements/1.1/"
   xmlns:cc="http://creativecommons.org/ns#"
   xmlns:rdf="http://www.w3.org/1999/02/22-rdf-syntax-ns#"
   xmlns:svg="http://www.w3.org/2000/svg"
   xmlns="http://www.w3.org/2000/svg"
   xmlns:sodipodi="http://sodipodi.sourceforge.net/DTD/sodipodi-0.dtd"
   xmlns:inkscape="http://www.inkscape.org/namespaces/inkscape"
   version="1.1"
   x="0px"
   y="0px"
   viewBox="0 0 193.39999 135.89999"
   enable-background="new 0 0 226.8 226.8"
   xml:space="preserve"
   id="svg2"
   inkscape:version="0.91 r13725"
   sodipodi:docname="discussion.svg"
   width="193.39999"
   height="135.89999"><metadata
     id="metadata14"><rdf:RDF><cc:Work
         rdf:about=""><dc:format>image/svg+xml</dc:format><dc:type
           rdf:resource="http://purl.org/dc/dcmitype/StillImage" /><dc:title></dc:title></cc:Work></rdf:RDF></metadata><defs
     id="defs12" /><sodipodi:namedview
     pagecolor="#ffffff"
     bordercolor="#666666"
     borderopacity="1"
     objecttolerance="10"
     gridtolerance="10"
     guidetolerance="10"
     inkscape:pageopacity="0"
     inkscape:pageshadow="2"
     inkscape:window-width="1600"
     inkscape:window-height="842"
     id="namedview10"
     showgrid="false"
     fit-margin-top="0"
     fit-margin-left="0"
     fit-margin-right="0"
     fit-margin-bottom="0"
     inkscape:zoom="0.8324515"
     inkscape:cx="98.903815"
     inkscape:cy="42.55"
     inkscape:window-x="0"
     inkscape:window-y="25"
     inkscape:window-maximized="1"
     inkscape:current-layer="svg2" /><path
     d="m 175.3,135.9 -24.3,-19 -81.7,0 c -7.2,0 -13.1,-5.9 -13.1,-13.1 l 0,-60.7 C 56.2,35.9 62.1,30 69.3,30 l 111,0 c 7.2,0 13.1,5.9 13.1,13.1 l 0,60.8 c 0,7.2 -5.9,13.1 -13.1,13.1 l -5,0 0,18.9 z M 69.3,36.8 c -3.4,0 -6.2,2.8 -6.2,6.2 l 0,60.8 c 0,3.4 2.8,6.2 6.2,6.2 l 85.5,0 13.7,10.4 0,-10.4 11.9,0 c 3.4,0 6.2,-2.8 6.2,-6.2 l 0,-60.7 c 0,-3.4 -2.8,-6.2 -6.2,-6.2 l -111.1,0 z m -18.2,43.3 -12.3,0 -13.7,10.5 0,-10.4 -11.9,0 C 9.8,80.2 7,77.4 7,74 L 7,13.1 C 7,9.7 9.8,6.9 13.2,6.9 l 111,0 c 3.4,0 6.2,2.8 6.2,6.2 l 0,12.4 6.8,0 0,-12.4 C 137.2,5.9 131.3,0 124.1,0 L 13.1,0 C 5.9,0 0,5.9 0,13.1 L 0,73.9 C 0,81.1 5.9,87 13.1,87 l 5,0 0,19 24.3,-19 8.6,0 0,-6.9 z m 52.8,-5.2 c 0,4 -3.3,7.3 -7.3,7.3 -4,0 -7.3,-3.3 -7.3,-7.3 0,-4 3.3,-7.3 7.3,-7.3 4,0 7.3,3.2 7.3,7.3 z m 20.3,-7.3 c -4,0 -7.3,3.3 -7.3,7.3 0,4 3.3,7.3 7.3,7.3 4,0 7.3,-3.3 7.3,-7.3 0,-4 -3.3,-7.3 -7.3,-7.3 z m 27.6,0 c -4,0 -7.3,3.3 -7.3,7.3 0,4 3.3,7.3 7.3,7.3 4,0 7.3,-3.3 7.3,-7.3 0,-4 -3.3,-7.3 -7.3,-7.3 z"
     id="path4"
     inkscape:connector-curvature="0"
     style="fill:#c67a39;fill-opacity:0;stroke:#c67a39;stroke-opacity:1" /></svg>