<?xml version="1.0" encoding="UTF-8" standalone="no"?>
<svg
   xmlns:osb="http://www.openswatchbook.org/uri/2009/osb"
   xmlns:dc="http://purl.org/dc/elements/1.1/"
   xmlns:cc="http://creativecommons.org/ns#"
   xmlns:rdf="http://www.w3.org/1999/02/22-rdf-syntax-ns#"
   xmlns:svg="http://www.w3.org/2000/svg"
   xmlns="http://www.w3.org/2000/svg"
   xmlns:xlink="http://www.w3.org/1999/xlink"
   xmlns:sodipodi="http://sodipodi.sourceforge.net/DTD/sodipodi-0.dtd"
   xmlns:inkscape="http://www.inkscape.org/namespaces/inkscape"
   version="1.1"
   x="0px"
   y="0px"
   viewBox="0 0 99.908005 100"
   enable-background="new 0 0 100 100"
   xml:space="preserve"
   id="svg2"
   inkscape:version="0.91 r13725"
   sodipodi:docname="icon.svg"
   width="99.908005"
   height="100"><metadata
     id="metadata28"><rdf:RDF><cc:Work
         rdf:about=""><dc:format>image/svg+xml</dc:format><dc:type
           rdf:resource="http://purl.org/dc/dcmitype/StillImage" /><dc:title></dc:title><cc:license
           rdf:resource="http://creativecommons.org/licenses/by-nc-sa/3.0/" /></cc:Work><cc:License
         rdf:about="http://creativecommons.org/licenses/by-nc-sa/3.0/"><cc:permits
           rdf:resource="http://creativecommons.org/ns#Reproduction" /><cc:permits
           rdf:resource="http://creativecommons.org/ns#Distribution" /><cc:requires
           rdf:resource="http://creativecommons.org/ns#Notice" /><cc:requires
           rdf:resource="http://creativecommons.org/ns#Attribution" /><cc:prohibits
           rdf:resource="http://creativecommons.org/ns#CommercialUse" /><cc:permits
           rdf:resource="http://creativecommons.org/ns#DerivativeWorks" /><cc:requires
           rdf:resource="http://creativecommons.org/ns#ShareAlike" /></cc:License></rdf:RDF></metadata><defs
     id="defs26"><linearGradient
       id="linearGradient5608"
       osb:paint="solid"><stop
         style="stop-color:#6f3b36;stop-opacity:1;"
         offset="0"
         id="stop5610" /></linearGradient><linearGradient
       inkscape:collect="always"
       xlink:href="#linearGradient5608"
       id="linearGradient5612"
       x1="73.573"
       y1="40.947"
       x2="86.261"
       y2="40.947"
       gradientUnits="userSpaceOnUse" /><linearGradient
       inkscape:collect="always"
       xlink:href="#linearGradient5608"
       id="linearGradient5614"
       x1="5.046"
       y1="55.705"
       x2="83.522"
       y2="55.705"
       gradientUnits="userSpaceOnUse" /><linearGradient
       inkscape:collect="always"
       xlink:href="#linearGradient5608"
       id="linearGradient5616"
       x1="78.138"
       y1="21.9755"
       x2="86.537"
       y2="21.9755"
       gradientUnits="userSpaceOnUse" /><linearGradient
       inkscape:collect="always"
       xlink:href="#linearGradient5608"
       id="linearGradient5618"
       x1="61.141"
       y1="34.663"
       x2="69.541"
       y2="34.663"
       gradientUnits="userSpaceOnUse" /><linearGradient
       inkscape:collect="always"
       xlink:href="#linearGradient5608"
       id="linearGradient5620"
       x1="61.237"
       y1="47.291"
       x2="69.447"
       y2="47.291"
       gradientUnits="userSpaceOnUse" /><linearGradient
       inkscape:collect="always"
       xlink:href="#linearGradient5608"
       id="linearGradient5622"
       x1="78.08"
       y1="7.1149998"
       x2="82.31"
       y2="7.1149998"
       gradientUnits="userSpaceOnUse" /><linearGradient
       inkscape:collect="always"
       xlink:href="#linearGradient5608"
       id="linearGradient5624"
       x1="90.736001"
       y1="57.890999"
       x2="94.954001"
       y2="57.890999"
       gradientUnits="userSpaceOnUse" /></defs><sodipodi:namedview
     pagecolor="#ffffff"
     bordercolor="#666666"
     borderopacity="1"
     objecttolerance="10"
     gridtolerance="10"
     guidetolerance="10"
     inkscape:pageopacity="0"
     inkscape:pageshadow="2"
     inkscape:window-width="1600"
     inkscape:window-height="842"
     id="namedview24"
     showgrid="false"
     fit-margin-top="5"
     fit-margin-left="5"
     fit-margin-right="5"
     fit-margin-bottom="5"
     inkscape:zoom="1.888"
     inkscape:cx="-18.93399"
     inkscape:cy="46.68057"
     inkscape:window-x="0"
     inkscape:window-y="25"
     inkscape:window-maximized="1"
     inkscape:current-layer="g4" /><g
     transform="translate(-0.046,2.3841858e-7)"
     id="g4"><path
       inkscape:connector-curvature="0"
       d="m 79.918,36.377 c -2.321,0 -4.488,-0.656 -6.345,-1.774 1.118,1.857 1.773,4.023 1.772,6.344 0.001,2.322 -0.654,4.486 -1.772,6.344 1.857,-1.118 4.023,-1.773 6.344,-1.774 2.321,10e-4 4.486,0.656 6.343,1.774 -1.117,-1.857 -1.771,-4.022 -1.771,-6.343 -0.001,-2.321 0.654,-4.487 1.772,-6.344 -1.858,1.117 -4.023,1.773 -6.343,1.773 z"
       id="path6"
       style="fill:url(#linearGradient5612);fill-opacity:1;opacity:0.921" /><path
       inkscape:connector-curvature="0"
       d="m 77.084,48.274 3.991,20.02 -7.643,15.325 -44.674,-32.557 7.972,-31.987 36.136,8.045 0.982,4.924 0.93,0.561 c 0.552,0.332 1.13,0.605 1.727,0.825 L 74.859,25.173 35.501,16.41 13.716,38.25 5.046,77.372 27.025,95 61.56,95 74.768,86.174 83.522,68.621 79.383,47.87 c -0.779,0.043 -1.551,0.179 -2.299,0.404 z M 15.846,39.417 33.72,21.498 26.34,51.109 8.169,74.065 15.846,39.417 Z m 45.006,53.249 -33.006,0 L 8.364,77.042 27.416,52.973 71.822,85.334 60.852,92.666 Z"
       id="path8"
       style="fill:url(#linearGradient5614);fill-opacity:1;opacity:0.921" /><path
       inkscape:connector-curvature="0"
       d="m 82.338,17.776 c -0.245,0.985 -0.745,1.919 -1.513,2.687 -0.768,0.769 -1.702,1.269 -2.687,1.513 0.984,0.245 1.918,0.745 2.686,1.513 0.769,0.768 1.269,1.702 1.514,2.686 0.244,-0.985 0.745,-1.918 1.512,-2.687 0.769,-0.769 1.702,-1.268 2.687,-1.513 -0.984,-0.244 -1.918,-0.745 -2.686,-1.513 -0.769,-0.766 -1.269,-1.7 -1.513,-2.686 z"
       id="path10"
       style="fill:url(#linearGradient5616);fill-opacity:1;opacity:0.921" /><path
       inkscape:connector-curvature="0"
       d="m 66.854,33.151 c -0.769,-0.768 -1.268,-1.702 -1.513,-2.687 -0.245,0.985 -0.744,1.918 -1.513,2.686 -0.768,0.769 -1.702,1.269 -2.687,1.513 0.984,0.245 1.918,0.745 2.687,1.513 0.769,0.768 1.268,1.702 1.513,2.686 0.245,-0.985 0.745,-1.918 1.513,-2.687 0.769,-0.769 1.702,-1.268 2.687,-1.513 -0.985,-0.243 -1.918,-0.743 -2.687,-1.511 z"
       id="path12"
       style="fill:url(#linearGradient5618);fill-opacity:1;opacity:0.921" /><path
       inkscape:connector-curvature="0"
       d="m 65.342,44.333 c -1.502,0.001 -2.903,-0.422 -4.105,-1.147 0.724,1.202 1.147,2.603 1.147,4.104 10e-4,1.502 -0.424,2.905 -1.147,4.106 1.202,-0.724 2.604,-1.147 4.105,-1.147 1.501,0 2.902,0.423 4.105,1.147 -0.724,-1.202 -1.148,-2.604 -1.148,-4.105 0,-1.502 0.425,-2.903 1.148,-4.104 -1.203,0.724 -2.604,1.147 -4.105,1.146 z"
       id="path14"
       style="fill:url(#linearGradient5620);fill-opacity:1;opacity:0.921" /><circle
       cx="80.195"
       cy="7.1149998"
       r="2.115"
       id="circle16"
       style="fill:url(#linearGradient5622);fill-opacity:1;opacity:0.921" /><circle
       cx="92.845001"
       cy="57.890999"
       r="2.109"
       id="circle18"
       style="fill:url(#linearGradient5624);fill-opacity:1;opacity:0.921" /></g></svg>