<svg xmlns="http://www.w3.org/2000/svg" xmlns:xlink="http://www.w3.org/1999/xlink" version="1.1" x="0px" y="0px" viewBox="0 0 64 80" style="enable-background:new 0 0 64 64;" xml:space="preserve"><title>06_informationsystems2</title><title>06_informationsystems2</title><g><path d="M63.7,58.3l-4-4c-0.4-0.4-1-0.4-1.4,0s-0.4,1,0,1.4l2.3,2.3H47v2h13.6l-2.3,2.3c-0.4,0.4-0.4,1,0,1.4   c0.2,0.2,0.5,0.3,0.7,0.3s0.5-0.1,0.7-0.3l4-4C64.1,59.3,64.1,58.7,63.7,58.3z"/><path d="M60,32C60,17.3,48.7,5.3,34.3,4.1l2.4-2.4c0.4-0.4,0.4-1,0-1.4s-1-0.4-1.4,0l-4,4c-0.4,0.4-0.4,1,0,1.4l4,4   C35.5,9.9,35.7,10,36,10s0.5-0.1,0.7-0.3c0.4-0.4,0.4-1,0-1.4l-2.2-2.2C47.7,7.4,58,18.5,58,32c0,14.3-11.7,26-26,26H0v2h32   C47.4,60,60,47.4,60,32z"/><path d="M17.5,56l1-1.7c-5.9-3.6-10.1-9.3-11.8-16c-1.7-6.7-0.6-13.7,3-19.7C13.6,12.2,20,7.8,27.3,6.4l-0.4-2   C19,5.9,12.2,10.7,8,17.5c-3.9,6.4-5,13.9-3.2,21.2C6.6,46,11.1,52.1,17.5,56z"/><path d="M32,30c0.6,0,1,0.4,1,1h2c0-1.7-1.3-3-3-3c-2.2,0-4,1.8-4,4c0,2.8,2.2,5,5,5c3.3,0,6-2.7,6-6c0-3.9-3.1-7-7-7   c-4.4,0-8,3.6-8,8c0,5,4,9,9,9c5.5,0,10-4.5,10-10c0-6.1-4.9-11-11-11c-6.6,0-12,5.4-12,12c0,7.2,5.8,13,13,13c7.7,0,14-6.3,14-14   c0-8.3-6.7-15-15-15c-8.8,0-16,7.2-16,16c0,9.4,7.6,17,17,17c9.9,0,18-8.1,18-18c0-10.5-8.5-19-19-19c-11,0-20,9-20,20   c0,11.6,9.4,21,21,21v-2c-10.5,0-19-8.5-19-19c0-9.9,8.1-18,18-18c9.4,0,17,7.6,17,17c0,8.8-7.2,16-16,16c-8.3,0-15-6.7-15-15   c0-7.7,6.3-14,14-14c7.2,0,13,5.8,13,13c0,6.6-5.4,12-12,12c-6.1,0-11-4.9-11-11c0-5.5,4.5-10,10-10c5,0,9,4,9,9c0,4.4-3.6,8-8,8   c-3.9,0-7-3.1-7-7c0-3.3,2.7-6,6-6c2.8,0,5,2.2,5,5c0,2.2-1.8,4-4,4c-1.7,0-3-1.3-3-3C30,30.9,30.9,30,32,30z"/></g></svg>