<svg xmlns="http://www.w3.org/2000/svg" xmlns:xlink="http://www.w3.org/1999/xlink" version="1.1" x="0px" y="0px" viewBox="0 0 100 125" enable-background="new 0 0 100 100" xml:space="preserve"><g><path d="M32.4,28.9C32.4,28.9,32.4,28.9,32.4,28.9c0.5,0,0.9-0.2,1.2-0.5l6.5-6.6c0.6-0.7,0.6-1.7,0-2.3c-0.6-0.6-1.7-0.6-2.3,0   l-3.6,3.7v-1.2c0-8.5,6.9-15.4,15.4-15.4h1.9c8.5,0,15.4,6.9,15.4,15.4v23.6c0,0.9,0.7,1.7,1.7,1.7s1.7-0.7,1.7-1.7V22.1   c0-10.3-8.4-18.7-18.7-18.7h-1.9c-10.3,0-18.7,8.4-18.7,18.7v1l-3.5-3.8c-0.6-0.7-1.7-0.7-2.3-0.1c-0.7,0.6-0.7,1.7-0.1,2.3   l6.4,6.9C31.5,28.7,32,28.9,32.4,28.9z"/><path d="M58.5,82.7l-15.8-3.8c-0.9-0.2-1.8,0.3-2,1.2c-0.2,0.9,0.3,1.8,1.2,2L57.7,86c0.1,0,0.3,0,0.4,0c0.8,0,1.4-0.5,1.6-1.3   C60,83.8,59.4,82.9,58.5,82.7z"/><path d="M58.5,87.8L42.8,84c-0.9-0.2-1.8,0.3-2,1.2c-0.2,0.9,0.3,1.8,1.2,2L57.7,91c0.1,0,0.3,0,0.4,0c0.8,0,1.4-0.5,1.6-1.3   C60,88.9,59.4,88,58.5,87.8z"/><path d="M54.1,90.9c-0.8-0.4-1.8-0.1-2.2,0.7l-0.5,1h-2.8l-1-2.3c-0.4-0.8-1.3-1.2-2.2-0.9s-1.2,1.3-0.9,2.2l1.4,3.3   c0.3,0.6,0.9,1,1.5,1h4.9c0.6,0,1.2-0.4,1.5-0.9l1-1.9C55.3,92.3,54.9,91.3,54.1,90.9z"/><path d="M62,34.7c0-2.4-0.9-3.8-1.7-4.5c-1-1-2.3-1.5-3.7-1.5c-2.3,0-4,1.5-4,3.5v6.1c-0.7,0-1.5,0-2.2,0l-0.4,0l-0.7,0   c-0.6,0-1.1,0-1.7,0v-6.2c0-2-1.7-3.6-4.1-3.6c-1.4,0-2.7,0.6-3.6,1.5c-0.8,0.8-1.7,2.2-1.7,4.6c0,2,0.6,3.5,1.7,4.7   c1.1,1.1,2.7,1.7,4.3,2v26.5c0,0.9,0.7,1.7,1.7,1.7s1.7-0.7,1.7-1.7V41.6c0.6,0,1.2,0,1.8,0l1,0c0.7,0,1.5,0,2.2,0v26.2   c0,0.9,0.7,1.7,1.7,1.7s1.7-0.7,1.7-1.7l0-26.5c0.6-0.1,1.1-0.2,1.6-0.4C60.5,39.9,62,37.7,62,34.7z M44.4,38   c-0.8-0.2-1.5-0.5-2-0.9c-0.5-0.5-0.8-1.3-0.8-2.3c0-1.5,0.6-2.5,1.6-2.8c0.1,0,0.3,0,0.4,0c0.4,0,0.7,0.2,0.8,0.3V38z M56,37.9   l0-5.8c0-0.1,0.3-0.2,0.7-0.2c0.2,0,0.3,0,0.5,0.1c1,0.3,1.5,1.2,1.5,2.7c0,1.6-0.6,2.5-2.2,3.1C56.3,37.8,56.2,37.9,56,37.9z"/><path d="M76,57.1l-6.4-6.9c-0.3-0.3-0.7-0.5-1.2-0.5c-0.4,0-0.9,0.2-1.2,0.5l-6.5,6.6c-0.6,0.7-0.6,1.7,0,2.3s1.7,0.6,2.3,0   l3.6-3.7v1.2c0,8.5-6.9,15.4-15.4,15.4h-1.9c-8.5,0-15.4-6.9-15.4-15.4V33.1c0-0.9-0.7-1.7-1.7-1.7s-1.7,0.7-1.7,1.7v23.6   c0,7,3.9,13.1,9.6,16.3v2.8c0,1.1,0.9,2,2,2s2-0.9,2-2v-1.1c1.6,0.5,3.3,0.7,5.1,0.7h1.9c1.8,0,3.6-0.3,5.2-0.8v5   c0,0.9,0.7,1.7,1.7,1.7s1.7-0.7,1.7-1.7v-6.4c6-3.1,10.1-9.4,10.1-16.6v-1l3.5,3.8c0.3,0.4,0.8,0.5,1.2,0.5c0.4,0,0.8-0.1,1.1-0.4   C76.6,58.8,76.6,57.8,76,57.1z"/></g></svg>