<svg xmlns="http://www.w3.org/2000/svg" xmlns:xlink="http://www.w3.org/1999/xlink" version="1.1" x="0px" y="0px" viewBox="0 0 512 640" enable-background="new 0 0 512 512" xml:space="preserve"><path d="M493.974,314.562V197.436l-64.182-4.137c-1.939-5.388-4.129-10.683-6.556-15.857l42.444-48.309l-82.804-82.821  L334.565,88.76c-5.167-2.421-10.47-4.608-15.875-6.551l-4.151-64.192H197.444l-4.135,64.191c-5.401,1.94-10.703,4.128-15.873,6.551  l-48.306-42.447l-82.81,82.821l42.443,48.306c-2.425,5.168-4.614,10.465-6.556,15.86l-64.183,4.137v117.108l64.181,4.152  c1.943,5.402,4.133,10.7,6.556,15.865l-42.441,48.303l82.81,82.822l48.305-42.447c5.166,2.42,10.46,4.606,15.856,6.547l4.14,64.177  l117.107,0.021l4.151-64.195c5.405-1.941,10.707-4.129,15.874-6.55l48.293,42.447l82.824-82.804l-42.445-48.324  c2.416-5.156,4.604-10.452,6.551-15.859L493.974,314.562z M424.582,381.55l-43.045,43.034l-42.63-37.469l-9.194,4.983  c-9.31,5.046-19.268,9.156-29.6,12.219l-10.031,2.973l-3.666,56.688l-60.857-0.011l-3.654-56.676l-10.033-2.975  c-10.308-3.056-20.261-7.167-29.582-12.219l-9.193-4.982l-42.639,37.468L87.421,381.54l37.476-42.652l-4.995-9.197  c-5.053-9.302-9.166-19.252-12.228-29.574l-2.975-10.028l-56.673-3.666v-60.857l56.672-3.652l2.976-10.031  c3.055-10.3,7.17-20.252,12.23-29.58l4.988-9.194l-37.472-42.649l43.036-43.043l42.639,37.468l9.193-4.983  c9.326-5.055,19.283-9.165,29.594-12.217l10.039-2.971l3.652-56.694h60.842l3.666,56.69l10.031,2.974  c10.332,3.062,20.29,7.173,29.6,12.218l9.193,4.982l42.643-37.467l43.034,43.043L387.117,173.1l4.977,9.191  c5.073,9.367,9.189,19.323,12.234,29.59l2.976,10.031l56.67,3.652v60.868l-56.657,3.652l-2.983,10.015  c-3.087,10.362-7.203,20.32-12.234,29.599l-4.985,9.193L424.582,381.55z"/><path d="M317.777,292.08c-10.965-7.559-17.772-12.642-20.124-21.065c8.255-6.448,15.076-14.906,19.959-24.762  c10.248-3.599,18.618-13.338,21.298-25.75c1.734-8.021,0.923-16.255-2.285-23.187c-1.689-3.65-3.987-6.812-6.74-9.355  c7.524-26.951-5.817-55.973-6.515-57.458c-1.867-3.978-5.016-7.172-9.254-8.331c-4.169-1.139-8.262-0.654-11.85,1.715  c-1.245,0.575-8.542,3.632-22.853,3.632c-2.671,0-5.472-0.106-8.324-0.317c-28.885-2.137-51.292,4.886-66.369,20.711  c-11.198,11.754-15.624,25.551-17.34,35.578c-5.706,2.737-10.398,7.563-13.297,13.827c-3.208,6.932-4.019,15.166-2.285,23.182  c2.684,12.419,11.061,22.161,21.312,25.759c4.965,10.024,11.928,18.588,20.373,25.073c-2.357,8.224-9.03,13.304-19.73,20.842  c-12.749,8.98-30.21,21.28-30.21,45.793v27.146c0,8.284,6.716,15,15,15h154.916c8.284,0,15-6.716,15-15v-27.146  C348.459,313.23,330.726,301.006,317.777,292.08z M318.459,350.112H193.543v-12.146c0-8.178,4.796-12.327,17.486-21.268  c14.102-9.934,33.413-23.537,33.413-52.845c0-5.521-3.032-10.595-7.894-13.21c-8.36-4.497-15.217-12.896-18.81-23.042  c-2.248-6.346-8.379-10.346-15.002-9.968c-0.493-0.557-1.228-1.677-1.615-3.474c-0.245-1.13-0.255-2.074-0.174-2.798  c3.608,0.129,7.15-0.995,9.978-3.335c3.688-3.055,5.702-7.562,5.412-12.338c-0.017-1.068-0.065-16.592,10.285-27.272  c7.451-7.689,19.104-11.589,34.637-11.589c2.438,0,5.002,0.099,7.62,0.292c3.585,0.265,7.13,0.398,10.535,0.398  c8.434,0,15.388-0.807,20.952-1.907c2.43,10.092,3.447,23.195-2.972,31.704c-3.84,5.09-4.043,12.051-0.505,17.355  c2.9,4.351,7.806,6.794,12.868,6.674c0.083,0.727,0.075,1.679-0.172,2.821c-0.387,1.793-1.12,2.911-1.612,3.467  c-6.576-0.375-12.747,3.627-14.993,9.97c-3.599,10.162-10.167,18.287-18.495,22.879c-4.786,2.639-7.758,7.671-7.758,13.136  c0,29.709,19.664,43.265,34.021,53.162c12.853,8.86,17.709,12.982,17.709,21.187V350.112z"/></svg>